<svg width="949" height="1404" viewBox="0 0 949 1404" fill="none" xmlns="http://www.w3.org/2000/svg">
<path d="M756.748 0.646308C741.148 3.31297 730.481 9.57964 716.081 24.6463L705.814 35.4463L697.414 27.313C687.281 17.4463 681.414 14.7796 670.748 14.7796C648.748 14.6463 632.214 36.7796 625.281 75.4463C624.081 82.2463 622.881 87.9796 622.748 88.2463C622.481 88.513 619.148 85.313 615.281 81.1796C603.681 68.7796 594.481 65.8463 584.748 71.0463C562.748 82.7796 553.281 152.78 567.414 198.246C568.881 202.646 569.814 206.513 569.681 206.646C569.548 206.646 561.948 210.246 552.748 214.513C520.348 229.446 482.881 244.913 482.348 243.446C478.748 232.513 462.614 204.78 450.081 187.846C437.948 171.58 436.614 170.513 428.081 170.513C421.948 170.513 420.348 171.046 416.881 174.38C411.681 179.313 409.681 185.18 411.281 190.78C411.948 193.18 416.348 200.113 421.148 206.113C436.214 225.58 448.614 247.98 455.281 267.846C458.881 278.78 463.014 300.513 463.681 311.446L464.214 320.513H450.081C431.814 320.513 392.348 322.78 365.014 325.313C281.548 333.046 205.281 352.913 146.748 382.113C114.348 398.38 94.4809 411.98 72.8809 433.046C33.4143 471.446 11.8143 514.246 2.48093 571.846C-1.11907 594.246 -0.719072 631.313 3.1476 650.78C12.0809 695.313 30.3476 726.78 60.8809 749.98L71.0143 757.713L71.9476 780.113C75.8143 873.713 90.2143 961.313 112.881 1028.91C146.481 1129.85 197.681 1206.51 269.414 1263.85C295.548 1284.78 321.014 1300.65 357.281 1318.78C395.948 1338.11 404.748 1345.45 423.948 1374.51C429.681 1383.31 435.681 1391.98 437.281 1393.58C441.948 1398.78 450.081 1402.25 459.548 1402.91C477.014 1404.11 489.414 1397.31 501.014 1379.98C512.881 1362.25 519.548 1354.25 527.681 1347.58C538.748 1338.65 550.881 1331.31 563.414 1326.11C590.348 1315.05 607.548 1305.85 632.748 1289.31C657.948 1272.65 675.014 1258.51 700.881 1232.65C742.081 1191.31 768.081 1154.51 795.548 1098.91C837.681 1013.31 859.548 922.913 870.614 789.18L872.614 765.18L877.681 761.313C880.481 759.18 887.548 752.513 893.414 746.513C945.948 692.78 961.948 611.446 935.414 532.113C920.748 488.246 891.148 446.913 854.081 418.513C815.014 388.513 739.014 355.58 674.748 341.046C636.348 332.246 561.548 322.246 525.281 320.913L502.614 320.113L501.014 309.046C499.548 299.713 494.748 278.246 492.081 269.846C491.548 267.98 493.814 266.513 503.681 262.513C518.481 256.513 553.014 239.313 568.614 230.246L579.948 223.713L589.281 230.78C601.281 239.846 617.148 247.713 630.748 251.313C639.148 253.58 645.281 254.246 659.414 254.246C692.748 254.246 713.014 245.98 722.481 228.78C727.548 219.446 728.214 212.246 725.148 202.78L722.481 195.18L727.414 193.846C740.881 190.246 760.214 182.913 767.948 178.646C786.748 168.113 798.614 150.913 798.481 134.646C798.481 122.246 795.948 117.713 782.214 105.446L776.481 100.38L781.948 92.113C803.814 58.3796 806.748 28.513 789.948 11.1796C781.148 2.11297 769.281 -1.62036 756.748 0.646308ZM777.681 14.6463C792.881 25.9796 793.948 46.2463 780.881 72.2463C777.948 78.113 772.481 86.7796 768.881 91.5796C765.148 96.513 762.081 101.046 762.081 101.713C762.081 102.38 766.881 106.913 772.748 111.713C785.014 121.846 787.414 125.713 787.414 135.18C787.414 143.98 783.014 152.78 774.348 160.78C764.214 170.246 752.614 175.446 722.348 183.98C713.014 186.646 704.881 189.046 704.348 189.446C703.681 189.846 704.748 191.713 706.481 193.713C715.548 203.313 717.681 212.78 712.614 221.713C707.281 231.18 694.481 237.046 674.081 239.313C645.814 242.38 617.948 234.78 596.881 218.113L593.681 215.58L603.948 208.78L614.348 201.98L619.148 204.38C634.614 212.246 659.948 217.046 675.548 215.046C686.081 213.713 687.414 213.18 687.414 210.38C687.414 207.98 683.681 206.513 672.748 204.513C663.414 202.78 638.081 194.913 633.014 192.113C630.081 190.38 630.081 190.38 636.348 185.846C639.814 183.313 649.681 175.446 658.081 168.513L673.414 155.713L679.414 157.713C688.614 160.646 721.414 160.513 733.414 157.313C753.281 152.113 765.948 143.98 760.348 139.846C758.748 138.646 755.814 138.78 748.481 140.113C737.281 142.246 697.414 143.98 692.081 142.646C688.614 141.713 688.881 141.313 704.348 125.446C727.281 101.846 744.214 80.113 759.948 54.113C767.948 40.913 769.414 35.1796 764.748 35.1796C761.414 35.1796 757.548 39.313 731.281 71.1796C720.081 84.7796 703.014 103.846 693.548 113.58L676.081 131.446L675.014 126.913C674.348 124.513 674.081 108.246 674.481 90.7796C674.748 72.913 674.614 58.7796 673.948 58.3796C666.081 53.5796 658.081 81.1796 658.081 113.18C658.081 122.113 658.748 132.78 659.548 136.913L661.148 144.513L654.748 150.246C645.814 158.113 627.014 172.78 622.348 175.446L618.481 177.846L615.014 165.446C613.014 158.78 610.214 145.98 608.748 137.18C604.881 115.313 604.348 113.313 601.814 112.78C597.281 111.846 596.081 117.58 596.081 139.846C596.214 157.046 596.748 163.313 599.014 172.513C600.614 178.78 602.214 184.78 602.748 185.98C603.414 187.713 601.281 189.58 593.414 193.846C587.814 196.913 582.748 198.913 582.081 198.38C581.548 197.713 580.081 194.113 579.014 190.513C569.814 161.446 570.081 121.313 579.414 96.113C582.614 87.5796 589.414 79.1796 592.881 79.1796C599.948 79.1796 606.881 85.713 619.414 104.113C623.948 110.913 628.214 116.513 628.748 116.513C630.481 116.513 631.281 113.046 633.948 91.713C636.748 70.513 640.081 57.713 646.214 45.713C653.548 31.0463 660.081 25.8463 671.148 25.8463C681.548 25.8463 691.814 33.5796 701.414 48.7796C703.681 52.3796 705.814 55.1796 706.348 55.1796C706.881 55.1796 709.548 51.4463 712.214 46.913C720.081 33.9796 733.281 21.4463 744.881 15.8463C753.948 11.4463 755.548 11.0463 764.348 11.4463C771.548 11.8463 774.881 12.6463 777.681 14.6463ZM566.614 419.58C579.681 425.58 587.681 437.046 587.948 449.846C587.948 453.846 587.681 458.78 587.148 460.646C586.081 464.113 586.348 464.246 595.014 465.846C621.814 470.913 645.681 492.646 657.548 522.913C660.081 529.313 663.414 537.58 664.881 541.313C669.281 552.646 670.614 563.58 668.748 572.913C666.748 583.58 660.081 595.846 654.214 600.38C651.548 602.246 646.481 606.78 643.014 610.246C639.281 613.98 634.081 617.58 630.881 618.646C627.681 619.713 623.414 622.38 621.281 624.646C617.681 628.38 617.414 629.58 616.881 640.646C616.481 654.113 615.281 655.58 606.348 654.913C601.681 654.513 601.414 654.646 600.748 659.18C600.081 663.446 599.681 663.846 595.414 664.246C591.814 664.513 590.214 665.58 588.481 668.646C586.348 672.246 585.814 672.513 580.881 671.713C576.081 670.913 574.881 671.313 570.748 675.046C567.014 678.38 564.748 679.18 560.081 679.18C552.748 679.18 548.748 675.98 540.214 663.313C532.481 651.713 530.348 650.38 524.481 653.313C516.081 657.58 508.748 663.313 508.748 665.58C508.748 666.78 510.614 670.513 512.881 673.846C520.214 684.78 522.481 690.38 523.548 700.513C524.348 708.246 526.748 715.98 534.081 734.513C548.881 771.713 552.614 787.18 550.214 799.846C549.548 803.446 549.148 806.646 549.281 806.78C549.414 807.046 552.748 802.646 556.481 797.18C564.214 786.113 564.748 782.913 560.881 772.913C559.414 768.78 558.214 761.313 557.681 751.98L556.881 737.446L563.014 718.246C568.614 701.18 569.548 699.18 572.348 699.18C573.948 699.18 575.948 700.38 576.748 701.846C578.748 705.58 578.748 716.513 576.748 722.513C575.414 726.646 575.681 730.113 577.281 728.38C580.481 724.78 589.281 707.846 592.748 698.513C597.681 684.78 601.414 676.913 604.614 673.313C607.948 669.58 616.081 665.846 621.148 665.846C627.414 665.846 636.881 673.313 640.748 681.18C643.948 687.846 643.948 692.246 639.948 719.846C636.081 747.58 632.614 757.58 618.348 781.98C604.614 805.58 605.148 803.446 609.148 818.646C614.348 838.646 615.681 851.98 615.148 882.246C614.881 905.18 614.348 910.113 612.614 911.846C611.414 913.046 604.881 915.18 598.081 916.646C586.214 919.046 585.281 919.446 577.948 926.513C570.081 933.98 560.481 939.18 549.414 941.98C546.081 942.78 543.148 943.98 542.748 944.38C542.081 945.446 545.414 959.18 547.681 964.913C549.548 969.846 551.548 970.646 567.148 973.713C602.348 980.513 663.414 1002.65 701.414 1022.38C746.081 1045.45 760.214 1059.58 761.814 1082.51C762.481 1093.05 761.281 1096.25 747.281 1120.11C727.414 1153.71 704.481 1183.58 677.414 1210.51C639.548 1248.38 603.014 1273.45 554.614 1294.51C532.214 1304.38 527.148 1307.18 513.014 1317.85C499.414 1328.11 489.414 1338.91 478.081 1355.85C464.881 1375.58 463.681 1375.71 452.348 1358.25C436.614 1333.98 423.948 1320.25 407.148 1308.78C403.681 1306.38 388.614 1298.25 373.548 1290.51C358.481 1282.91 339.814 1272.65 331.948 1267.85C282.748 1237.71 238.214 1195.45 207.014 1149.31C199.148 1137.58 199.148 1137.31 199.814 1129.85C201.014 1115.98 210.481 1103.05 227.948 1091.45C243.414 1081.31 248.214 1076.11 251.414 1066.51C258.481 1045.18 279.148 1032.11 293.014 1040.11C295.148 1041.45 300.348 1047.58 304.348 1053.85C313.414 1067.58 317.281 1071.98 323.414 1075.18C328.081 1077.58 342.081 1081.05 343.014 1080.11C343.281 1079.71 340.481 1074.78 336.881 1069.05C326.748 1052.91 323.148 1040.91 322.348 1019.58C321.548 998.113 324.348 980.113 331.014 961.846C341.814 932.78 344.614 923.313 346.081 912.78C347.948 899.313 347.281 895.846 341.281 883.713C336.881 875.046 336.481 873.18 336.481 863.046C336.481 855.58 337.948 845.846 340.614 833.846C342.748 823.98 345.548 808.913 346.748 800.513C349.948 776.38 351.148 770.913 358.748 742.513C371.814 694.246 374.748 686.113 383.681 671.58C389.148 662.913 403.414 648.646 410.081 645.18C412.214 644.113 419.014 636.246 425.281 627.846C437.414 611.58 439.014 610.513 446.081 614.513C447.948 615.58 450.881 616.38 452.614 616.513C459.414 616.513 476.881 599.446 482.881 586.78C484.881 582.513 485.014 581.18 483.548 577.18C482.348 573.58 482.214 568.646 483.414 554.913C485.814 524.646 491.681 508.78 506.081 493.446C513.681 485.18 513.948 484.78 511.548 482.646C510.214 481.446 507.414 477.313 505.281 473.446C502.214 467.846 501.414 464.913 501.414 457.846C501.548 427.446 537.548 406.38 566.614 419.58Z" fill="black"/>
</svg>
