<svg width="4808" height="1428" viewBox="0 0 4808 1428" fill="none" xmlns="http://www.w3.org/2000/svg">
<g clip-path="url(#clip0_9648_6)">
<path d="M757.334 1.46662C741.734 4.13329 731.067 10.4 716.667 25.4666L706.4 36.2666L698 28.1333C687.867 18.2666 682 15.6 671.334 15.6C649.334 15.4666 632.8 37.6 625.867 76.2666C624.667 83.0666 623.467 88.7999 623.334 89.0666C623.067 89.3333 619.734 86.1333 615.867 81.9999C604.267 69.5999 595.067 66.6666 585.334 71.8666C563.334 83.5999 553.867 153.6 568 199.067C569.467 203.467 570.4 207.333 570.267 207.467C570.134 207.467 562.534 211.067 553.334 215.333C520.934 230.267 483.467 245.733 482.934 244.267C479.334 233.333 463.2 205.6 450.667 188.667C438.534 172.4 437.2 171.333 428.667 171.333C422.534 171.333 420.934 171.867 417.467 175.2C412.267 180.133 410.267 186 411.867 191.6C412.534 194 416.934 200.933 421.734 206.933C436.8 226.4 449.2 248.8 455.867 268.667C459.467 279.6 463.6 301.333 464.267 312.267L464.8 321.333H450.667C432.4 321.333 392.934 323.6 365.6 326.133C282.134 333.867 205.867 353.733 147.334 382.933C114.934 399.2 95.0669 412.8 73.4669 433.867C34.0002 472.267 12.4002 515.067 3.06687 572.667C-0.533134 595.067 -0.133134 632.133 3.73353 651.6C12.6669 696.133 30.9335 727.6 61.4669 750.8L71.6002 758.533L72.5335 780.933C76.4002 874.533 90.8002 962.133 113.467 1029.73C147.067 1130.67 198.267 1207.33 270 1264.67C296.134 1285.6 321.6 1301.47 357.867 1319.6C396.534 1338.93 405.334 1346.27 424.534 1375.33C430.267 1384.13 436.267 1392.8 437.867 1394.4C442.534 1399.6 450.667 1403.07 460.134 1403.73C477.6 1404.93 490 1398.13 501.6 1380.8C513.467 1363.07 520.134 1355.07 528.267 1348.4C539.334 1339.47 551.467 1332.13 564 1326.93C590.934 1315.87 608.134 1306.67 633.334 1290.13C658.534 1273.47 675.6 1259.33 701.467 1233.47C742.667 1192.13 768.667 1155.33 796.134 1099.73C838.267 1014.13 860.134 923.733 871.2 790L873.2 766L878.267 762.133C881.067 760 888.134 753.333 894 747.333C946.534 693.6 962.534 612.267 936 532.933C921.334 489.067 891.734 447.733 854.667 419.333C815.6 389.333 739.6 356.4 675.334 341.867C636.934 333.067 562.134 323.067 525.867 321.733L503.2 320.933L501.6 309.867C500.134 300.533 495.334 279.067 492.667 270.667C492.134 268.8 494.4 267.333 504.267 263.333C519.067 257.333 553.6 240.133 569.2 231.067L580.534 224.533L589.867 231.6C601.867 240.667 617.734 248.533 631.334 252.133C639.734 254.4 645.867 255.067 660 255.067C693.334 255.067 713.6 246.8 723.067 229.6C728.134 220.267 728.8 213.067 725.734 203.6L723.067 196L728 194.667C741.467 191.067 760.8 183.733 768.534 179.467C787.334 168.933 799.2 151.733 799.067 135.467C799.067 123.067 796.534 118.533 782.8 106.267L777.067 101.2L782.534 92.9333C804.4 59.1999 807.334 29.3333 790.534 12C781.734 2.93329 769.867 -0.800046 757.334 1.46662ZM778.267 15.4666C793.467 26.8 794.534 47.0666 781.467 73.0666C778.534 78.9333 773.067 87.5999 769.467 92.3999C765.734 97.3333 762.667 101.867 762.667 102.533C762.667 103.2 767.467 107.733 773.334 112.533C785.6 122.667 788 126.533 788 136C788 144.8 783.6 153.6 774.934 161.6C764.8 171.067 753.2 176.267 722.934 184.8C713.6 187.467 705.467 189.867 704.934 190.267C704.267 190.667 705.334 192.533 707.067 194.533C716.134 204.133 718.267 213.6 713.2 222.533C707.867 232 695.067 237.867 674.667 240.133C646.4 243.2 618.534 235.6 597.467 218.933L594.267 216.4L604.534 209.6L614.934 202.8L619.734 205.2C635.2 213.067 660.534 217.867 676.134 215.867C686.667 214.533 688 214 688 211.2C688 208.8 684.267 207.333 673.334 205.333C664 203.6 638.667 195.733 633.6 192.933C630.667 191.2 630.667 191.2 636.934 186.667C640.4 184.133 650.267 176.267 658.667 169.333L674 156.533L680 158.533C689.2 161.467 722 161.333 734 158.133C753.867 152.933 766.534 144.8 760.934 140.667C759.334 139.467 756.4 139.6 749.067 140.933C737.867 143.067 698 144.8 692.667 143.467C689.2 142.533 689.467 142.133 704.934 126.267C727.867 102.667 744.8 80.9333 760.534 54.9333C768.534 41.7333 770 36 765.334 36C762 36 758.134 40.1333 731.867 71.9999C720.667 85.5999 703.6 104.667 694.134 114.4L676.667 132.267L675.6 127.733C674.934 125.333 674.667 109.067 675.067 91.5999C675.334 73.7333 675.2 59.5999 674.534 59.1999C666.667 54.4 658.667 81.9999 658.667 114C658.667 122.933 659.334 133.6 660.134 137.733L661.734 145.333L655.334 151.067C646.4 158.933 627.6 173.6 622.934 176.267L619.067 178.667L615.6 166.267C613.6 159.6 610.8 146.8 609.334 138C605.467 116.133 604.934 114.133 602.4 113.6C597.867 112.667 596.667 118.4 596.667 140.667C596.8 157.867 597.334 164.133 599.6 173.333C601.2 179.6 602.8 185.6 603.334 186.8C604 188.533 601.867 190.4 594 194.667C588.4 197.733 583.334 199.733 582.667 199.2C582.134 198.533 580.667 194.933 579.6 191.333C570.4 162.267 570.667 122.133 580 96.9333C583.2 88.3999 590 79.9999 593.467 79.9999C600.534 79.9999 607.467 86.5333 620 104.933C624.534 111.733 628.8 117.333 629.334 117.333C631.067 117.333 631.867 113.867 634.534 92.5333C637.334 71.3333 640.667 58.5333 646.8 46.5333C654.134 31.8666 660.667 26.6666 671.734 26.6666C682.134 26.6666 692.4 34.4 702 49.6C704.267 53.2 706.4 56 706.934 56C707.467 56 710.134 52.2666 712.8 47.7333C720.667 34.8 733.867 22.2666 745.467 16.6666C754.534 12.2666 756.134 11.8666 764.934 12.2666C772.134 12.6666 775.467 13.4666 778.267 15.4666ZM567.2 420.4C580.267 426.4 588.267 437.867 588.534 450.667C588.534 454.667 588.267 459.6 587.734 461.467C586.667 464.933 586.934 465.067 595.6 466.667C622.4 471.733 646.267 493.467 658.134 523.733C660.667 530.133 664 538.4 665.467 542.133C669.867 553.467 671.2 564.4 669.334 573.733C667.334 584.4 660.667 596.667 654.8 601.2C652.134 603.067 647.067 607.6 643.6 611.067C639.867 614.8 634.667 618.4 631.467 619.467C628.267 620.533 624 623.2 621.867 625.467C618.267 629.2 618 630.4 617.467 641.467C617.067 654.933 615.867 656.4 606.934 655.733C602.267 655.333 602 655.467 601.334 660C600.667 664.267 600.267 664.667 596 665.067C592.4 665.333 590.8 666.4 589.067 669.467C586.934 673.067 586.4 673.333 581.467 672.533C576.667 671.733 575.467 672.133 571.334 675.867C567.6 679.2 565.334 680 560.667 680C553.334 680 549.334 676.8 540.8 664.133C533.067 652.533 530.934 651.2 525.067 654.133C516.667 658.4 509.334 664.133 509.334 666.4C509.334 667.6 511.2 671.333 513.467 674.667C520.8 685.6 523.067 691.2 524.134 701.333C524.934 709.067 527.334 716.8 534.667 735.333C549.467 772.533 553.2 788 550.8 800.667C550.134 804.267 549.734 807.467 549.867 807.6C550 807.867 553.334 803.467 557.067 798C564.8 786.933 565.334 783.733 561.467 773.733C560 769.6 558.8 762.133 558.267 752.8L557.467 738.267L563.6 719.067C569.2 702 570.134 700 572.934 700C574.534 700 576.534 701.2 577.334 702.667C579.334 706.4 579.334 717.333 577.334 723.333C576 727.467 576.267 730.933 577.867 729.2C581.067 725.6 589.867 708.667 593.334 699.333C598.267 685.6 602 677.733 605.2 674.133C608.534 670.4 616.667 666.667 621.734 666.667C628 666.667 637.467 674.133 641.334 682C644.534 688.667 644.534 693.067 640.534 720.667C636.667 748.4 633.2 758.4 618.934 782.8C605.2 806.4 605.734 804.267 609.734 819.467C614.934 839.467 616.267 852.8 615.734 883.067C615.467 906 614.934 910.933 613.2 912.667C612 913.867 605.467 916 598.667 917.467C586.8 919.867 585.867 920.267 578.534 927.333C570.667 934.8 561.067 940 550 942.8C546.667 943.6 543.734 944.8 543.334 945.2C542.667 946.267 546 960 548.267 965.733C550.134 970.667 552.134 971.467 567.734 974.533C602.934 981.333 664 1003.47 702 1023.2C746.667 1046.27 760.8 1060.4 762.4 1083.33C763.067 1093.87 761.867 1097.07 747.867 1120.93C728 1154.53 705.067 1184.4 678 1211.33C640.134 1249.2 603.6 1274.27 555.2 1295.33C532.8 1305.2 527.734 1308 513.6 1318.67C500 1328.93 490 1339.73 478.667 1356.67C465.467 1376.4 464.267 1376.53 452.934 1359.07C437.2 1334.8 424.534 1321.07 407.734 1309.6C404.267 1307.2 389.2 1299.07 374.134 1291.33C359.067 1283.73 340.4 1273.47 332.534 1268.67C283.334 1238.53 238.8 1196.27 207.6 1150.13C199.734 1138.4 199.734 1138.13 200.4 1130.67C201.6 1116.8 211.067 1103.87 228.534 1092.27C244 1082.13 248.8 1076.93 252 1067.33C259.067 1046 279.734 1032.93 293.6 1040.93C295.734 1042.27 300.934 1048.4 304.934 1054.67C314 1068.4 317.867 1072.8 324 1076C328.667 1078.4 342.667 1081.87 343.6 1080.93C343.867 1080.53 341.067 1075.6 337.467 1069.87C327.334 1053.73 323.734 1041.73 322.934 1020.4C322.134 998.933 324.934 980.933 331.6 962.667C342.4 933.6 345.2 924.133 346.667 913.6C348.534 900.133 347.867 896.667 341.867 884.533C337.467 875.867 337.067 874 337.067 863.867C337.067 856.4 338.534 846.667 341.2 834.667C343.334 824.8 346.134 809.733 347.334 801.333C350.534 777.2 351.734 771.733 359.334 743.333C372.4 695.067 375.334 686.933 384.267 672.4C389.734 663.733 404 649.467 410.667 646C412.8 644.933 419.6 637.067 425.867 628.667C438 612.4 439.6 611.333 446.667 615.333C448.534 616.4 451.467 617.2 453.2 617.333C460 617.333 477.467 600.267 483.467 587.6C485.467 583.333 485.6 582 484.134 578C482.934 574.4 482.8 569.467 484 555.733C486.4 525.467 492.267 509.6 506.667 494.267C514.267 486 514.534 485.6 512.134 483.467C510.8 482.267 508 478.133 505.867 474.267C502.8 468.667 502 465.733 502 458.667C502.134 428.267 538.134 407.2 567.2 420.4Z" fill="black"/>
<path d="M3949.33 520.935V591.068L3945.6 585.868C3943.47 583.068 3937.47 576.668 3932.27 571.868C3904.8 546.535 3860.93 538.668 3820.67 552.135C3784.67 564.135 3759.73 590.135 3748.53 627.335C3744.27 642.001 3742.67 671.068 3745.33 687.735C3749.07 711.068 3759.47 732.535 3775.2 748.935C3797.47 772.535 3825.6 784.401 3859.33 784.401C3897.07 784.535 3927.07 770.135 3947.6 742.001L3950.53 738.001L3950.67 760.268V782.668H3966H3981.33V616.668V450.668H3965.33H3949.33V520.935ZM3884.67 576.268C3888.4 576.935 3896.4 580.001 3902.67 582.935C3924.53 593.335 3942.13 616.135 3947.33 640.801C3950.27 654.401 3949.87 678.668 3946.67 691.201C3939.2 720.535 3918.13 743.468 3890.67 752.135C3878.53 756.001 3857.07 756.935 3844 754.135C3801.07 745.068 3773.6 706.268 3776.4 658.668C3777.47 643.068 3780 632.801 3786 620.668C3798.4 595.335 3821.87 578.535 3850.4 574.535C3858.93 573.468 3874.67 574.135 3884.67 576.268Z" fill="black"/>
<path d="M1198 470.935C1197.6 471.868 1197.47 542.268 1197.6 627.335L1198 782.001H1214H1230L1230.67 659.468L1231.33 537.068L1291.6 639.468L1351.73 742.001L1360.27 742.268L1368.67 742.668L1429.33 638.535L1490 534.268L1490.4 658.535L1490.67 782.668H1506.67H1522.67V626.001V469.335H1509.6C1498.67 469.335 1496 469.735 1494.4 471.601C1493.33 472.935 1463.47 524.135 1428 585.335C1392.53 646.535 1362.93 697.468 1362 698.401C1360.8 699.735 1346.53 676.401 1293.07 585.068L1225.6 470.001L1212.13 469.601C1202.13 469.335 1198.4 469.735 1198 470.935Z" fill="black"/>
<path d="M2641.33 626.001V782.668H2658H2674.67V716.668V650.668H2755.33H2836V636.001V621.335H2755.33H2674.67V560.001V498.668H2765.33H2856.13L2855.73 484.268L2855.33 470.001L2748.4 469.601L2641.33 469.335V626.001Z" fill="black"/>
<path d="M1730.4 546.668C1716.53 548.934 1706.13 552.134 1693.87 558.001C1665.73 571.601 1645.87 594.001 1636.13 623.334C1631.07 638.668 1629.33 649.334 1629.33 666.001C1629.33 723.468 1666.8 770.268 1722 782.001C1734.8 784.801 1761.2 785.201 1772.67 782.801C1822.93 772.401 1856.67 738.534 1866.27 688.668C1869.33 672.534 1868 644.401 1863.47 628.934C1851.07 587.068 1819.47 557.601 1777.33 548.534C1766.27 546.134 1740.27 545.068 1730.4 546.668ZM1761.2 574.801C1797.07 579.201 1824.13 603.734 1832.93 639.734C1836.27 653.468 1836 679.068 1832.13 692.668C1823.07 724.801 1799.6 747.734 1769.07 753.868C1723.33 763.201 1681.87 740.934 1667.33 699.068C1662.8 686.268 1660.93 668.268 1662.67 653.601C1665.33 629.734 1672.53 614.001 1688 598.668C1704 582.534 1721.33 575.201 1746.67 573.601C1748.53 573.468 1755.07 574.001 1761.2 574.801Z" fill="black"/>
<path d="M2063.87 547.335C2035.6 551.735 2015.47 564.935 2000.4 588.801C1999.2 590.801 1998.8 586.801 1998.8 568.935L1998.67 546.535L1983.73 546.935L1968.67 547.335L1968.27 664.935L1968 782.668H1983.87H1999.73L2000.27 712.935C2000.8 647.068 2000.93 642.801 2003.6 633.201C2007.87 617.735 2013.87 607.201 2023.87 597.201C2037.47 583.601 2053.73 577.335 2075.6 576.935L2086.67 576.668V560.935V545.335L2081.07 545.468C2077.87 545.601 2070.13 546.401 2063.87 547.335Z" fill="black"/>
<path d="M2250 546.668C2204.13 553.868 2169.73 585.468 2157.07 632.002C2154.53 641.602 2154 646.535 2154 664.668C2154 682.668 2154.53 687.735 2157.07 697.068C2168.53 739.068 2198.4 769.202 2239.47 780.002C2276.53 789.735 2318.4 784.002 2346.27 765.335C2353.33 760.535 2366.67 748.135 2366.67 746.268C2366.67 745.602 2362.93 740.802 2358.27 735.468L2349.87 725.868L2341.07 733.468C2330.27 742.402 2320 748.002 2306.67 752.268C2298 754.935 2294 755.335 2277.33 755.335C2254.8 755.202 2246.27 753.335 2230.13 744.935C2205.87 732.402 2190.67 710.135 2186 680.268L2185.07 674.668H2283.07H2381.07L2382 670.535C2383.2 665.335 2381.73 647.335 2379.07 635.335C2369.6 591.868 2339.47 560.002 2298 549.335C2285.6 546.135 2261.87 544.802 2250 546.668ZM2287.33 575.335C2319.6 582.135 2346.4 611.202 2350.13 643.335L2351.07 650.668H2268.13C2222.67 650.668 2185.33 650.402 2185.33 650.002C2185.33 649.602 2186.27 644.668 2187.47 639.068C2196.93 592.802 2239.87 565.335 2287.33 575.335Z" fill="black"/>
<path d="M3043.87 547.335C3015.6 551.735 2995.47 564.935 2980.4 588.801C2979.2 590.801 2978.8 586.801 2978.8 568.935L2978.67 546.535L2963.73 546.935L2948.67 547.335L2948.27 664.935L2948 782.668H2963.87H2979.87L2980.27 712.935C2980.8 646.535 2980.93 642.801 2983.73 632.935C2993.6 597.335 3018.93 577.601 3055.6 576.935L3066.67 576.668V560.935V545.335L3061.07 545.468C3057.87 545.601 3050.13 546.401 3043.87 547.335Z" fill="black"/>
<path d="M3230 546.667C3192.27 552.534 3161.73 575.334 3145.47 609.334C3136.4 628.4 3134.27 638.534 3134.13 664C3134 682.934 3134.4 687.6 3137.07 697.067C3144.93 726.134 3160.4 748.134 3184 763.867C3205.47 778.267 3227.6 784.4 3256.67 784.4C3291.07 784.267 3318.27 774.4 3339.47 754.4C3343.47 750.667 3346.67 746.934 3346.67 746.134C3346.67 745.334 3342.8 740.534 3338.13 735.334L3329.73 726.134L3322.4 732.4C3312 741.2 3300.93 747.6 3288.67 751.6C3279.07 754.8 3276 755.2 3258 755.2C3234.67 755.2 3226.67 753.467 3210.13 744.934C3185.73 732.267 3170.53 710 3166 680.267L3165.07 674.667H3263.07H3361.07L3362 669.467C3363.07 662.667 3360.53 639.867 3357.2 628C3346.27 588.267 3317.07 559.334 3278 549.334C3265.6 546.134 3241.87 544.8 3230 546.667ZM3267.33 575.334C3299.6 582.134 3326.4 611.2 3330.13 643.334L3331.07 650.667H3248.13C3202.67 650.667 3165.33 650.4 3165.33 650C3165.33 649.6 3166.27 644.667 3167.47 639.067C3176.93 592.8 3219.87 565.334 3267.33 575.334Z" fill="black"/>
<path d="M3535.33 546.667C3490.13 553.734 3456.93 583.334 3443.2 628.667C3439.73 639.867 3439.47 642.4 3439.47 664.667C3439.47 687.067 3439.73 689.467 3443.07 700.4C3456.4 743.734 3488 772.534 3532.67 782C3547.2 785.2 3575.73 785.2 3590 782C3604.27 778.934 3619.2 773.067 3629.33 766.534C3637.73 761.067 3652 748.534 3652 746.534C3652 745.867 3648 740.934 3643.2 735.334L3634.4 725.2L3626.13 733.067C3617.07 741.467 3602.8 749.2 3590 752.667C3577.47 756.134 3554.67 756.8 3541.2 754.134C3515.6 749.067 3491.87 732.134 3480.93 711.067C3476.13 701.734 3470.67 684.134 3470.67 677.734V674.667H3568.67H3666.67V661.467C3666.67 645.734 3664.4 632.534 3658.93 617.6C3653.47 602.934 3646.67 592.134 3635.47 580.267C3620.27 564.267 3603.87 554.667 3582.8 549.2C3571.07 546.134 3547.07 544.934 3535.33 546.667ZM3578.67 576.667C3598.53 582.667 3618 599.067 3626.93 617.334C3631.73 626.934 3636 641.334 3636 647.6V650.667H3553.33C3474 650.667 3470.67 650.534 3470.67 648.267C3470.67 642.534 3476.27 624.534 3480.67 616.134C3492 594.667 3513.2 578.8 3536.13 574.8C3546.13 572.934 3569.87 574.134 3578.67 576.667Z" fill="black"/>
<path d="M4182.67 546.668C4172 548.135 4153.6 553.868 4144.67 558.268C4115.2 573.202 4093.33 601.202 4085.07 634.268C4081.33 649.468 4080.93 679.735 4084.4 693.868C4097.07 744.802 4135.33 778.268 4187.73 784.002C4237.73 789.468 4284.8 765.602 4306.4 724.002C4316.4 704.802 4320.4 687.735 4320.4 664.668C4320.13 628.402 4308.4 599.735 4284.27 577.202C4268.4 562.402 4254.53 554.935 4232.27 549.202C4220.4 546.135 4195.47 544.935 4182.67 546.668ZM4225.33 576.802C4247.07 582.402 4266.8 598.002 4276.93 618.002C4284.13 632.002 4286.53 641.602 4287.6 659.335C4290 704.135 4268.8 738.135 4230.4 751.602C4217.73 756.002 4195.87 757.202 4181.87 754.268C4148.93 747.202 4123.73 721.602 4116.53 688.002C4113.33 672.802 4114.53 646.802 4119.2 632.535C4125.47 613.068 4140 594.802 4156.67 585.202C4175.6 574.268 4202.4 571.068 4225.33 576.802Z" fill="black"/>
<path d="M4519.33 546.668C4493.07 550.935 4470.67 563.201 4457.33 581.068L4452.13 588.135L4451.73 567.735L4451.33 547.335H4436H4420.67V664.668V782.001H4436.67H4452.67L4453.33 708.668C4454 642.401 4454.27 634.668 4456.53 628.001C4462.67 609.601 4472.93 595.601 4487.2 586.401C4497.47 579.735 4509.73 576.135 4524.67 575.068C4564.4 572.535 4590.13 591.735 4596.67 628.535C4598.27 638.135 4598.67 653.468 4598.67 711.468V782.668H4614.53H4630.53L4631.07 710.268C4631.6 630.268 4631.47 631.601 4640.67 613.468C4652.4 590.268 4673.47 576.935 4701.6 575.068C4733.47 573.068 4757.07 584.935 4768.13 608.668C4775.33 624.001 4775.87 630.801 4776 710.268V782.668H4792.13H4808.13L4807.73 701.601C4807.2 623.201 4807.2 620.401 4804.27 610.268C4793.33 571.201 4765.07 549.201 4721.6 545.868C4698.53 544.135 4670.93 550.668 4652.67 562.001C4643.07 568.001 4629.47 581.068 4623.73 589.601L4620.53 594.401L4616.67 586.935C4608 570.268 4588.27 555.468 4566.67 549.335C4555.07 546.135 4531.47 544.801 4519.33 546.668Z" fill="black"/>
<path d="M1822.67 1042.67C1822.67 1045.33 1823.6 1045.33 3036.67 1045.33C4249.73 1045.33 4250.67 1045.33 4250.67 1042.67C4250.67 1040 4249.73 1040 3036.67 1040C1823.6 1040 1822.67 1040 1822.67 1042.67Z" fill="black"/>
<path d="M2412.8 1276.27C2411.87 1278.67 2396.27 1313.2 2378.13 1353.07C2360.13 1392.93 2345.33 1425.73 2345.33 1426.13C2345.33 1426.53 2350.53 1426.53 2356.93 1426.4L2368.4 1426L2376.67 1407.33L2384.8 1388.67H2425.87H2466.93L2475.07 1407.6L2483.33 1426.53L2495.07 1426.67C2501.47 1426.67 2506.67 1426.27 2506.67 1425.6C2506.67 1425.07 2491.07 1390.53 2472 1348.67L2437.47 1272.67L2426.13 1272.27L2414.8 1271.87L2412.8 1276.27ZM2442 1332C2450.53 1351.47 2457.87 1368.13 2458.27 1368.93C2458.8 1370.27 2451.87 1370.67 2426.13 1370.67C2408.13 1370.67 2393.33 1370.4 2393.33 1370C2393.33 1369.6 2399.87 1354.53 2407.87 1336.27C2425.47 1296.53 2425.73 1295.87 2426.13 1296.27C2426.27 1296.53 2433.47 1312.53 2442 1332Z" fill="black"/>
<path d="M2662.67 1349.33V1426.67H2674H2685.33V1392.67V1358.67H2729.33H2773.33V1392.67V1426.67H2784.67H2796V1349.33V1272H2784.67H2773.33V1305.33V1338.67H2729.33H2685.33V1305.33V1272H2674H2662.67V1349.33Z" fill="black"/>
<path d="M2974.67 1349.33V1426.67H3031.33H3088V1417.33V1408H3042.67H2997.33V1383.33V1358.67H3036H3074.67V1348.67V1338.67H3036H2997.33V1315.33V1292H3040.67H3084V1282V1272H3029.33H2974.67V1349.33Z" fill="black"/>
<path d="M3268.13 1346.93C3249.47 1388.27 3233.73 1423.07 3233.07 1424.27C3232 1426.53 3232.93 1426.67 3243.6 1426.67H3255.33L3263.87 1407.33L3272.27 1388L3313.07 1388.27L3353.87 1388.67L3362.27 1407.33L3370.53 1426L3382.53 1426.4L3394.53 1426.8L3385.6 1407.07C3380.8 1396.27 3364.93 1361.6 3350.67 1330L3324.53 1272.67L3313.33 1272.27L3302 1271.87L3268.13 1346.93ZM3330 1333.73C3338.67 1353.33 3345.33 1369.73 3345.07 1370.13C3344.67 1370.4 3330 1370.53 3312.27 1370.4L3280.27 1370L3296.4 1333.07C3305.33 1312.8 3313.07 1296.53 3313.47 1297.07C3313.87 1297.6 3321.33 1314.13 3330 1333.73Z" fill="black"/>
<path d="M3549.33 1349.2V1426.67H3589.73C3625.73 1426.67 3631.33 1426.4 3640.53 1424C3666.93 1417.33 3686.53 1400 3694.8 1375.87C3698.8 1364 3699.73 1342.53 3696.8 1330.67C3689.73 1302.8 3670.53 1283.47 3642 1275.2C3635.33 1273.2 3626.67 1272.8 3591.73 1272.27L3549.33 1271.87V1349.2ZM3630.93 1293.47C3641.07 1295.6 3650.8 1300.53 3658.53 1307.47C3671.6 1319.2 3676.67 1332.93 3675.73 1353.6C3675.2 1364.8 3674.53 1367.73 3670.8 1375.2C3663.6 1390 3650.93 1400.13 3634 1404.93C3629.73 1406.13 3617.2 1407.07 3599.73 1407.6L3572 1408.4V1350.13V1292H3598C3612.13 1292 3627.07 1292.67 3630.93 1293.47Z" fill="black"/>
</g>
<defs>
<clipPath id="clip0_9648_6">
<rect width="4808" height="1428" fill="white"/>
</clipPath>
</defs>
</svg>
